<svg fill="#d22730" height="200px" width="200px" version="1.1" id="Layer_1" xmlns="http://www.w3.org/2000/svg" xmlns:xlink="http://www.w3.org/1999/xlink" viewBox="0 0 512.001 512.001" xml:space="preserve" stroke="#d22730"><g id="SVGRepo_bgCarrier" stroke-width="0"></g><g id="SVGRepo_tracerCarrier" stroke-linecap="round" stroke-linejoin="round"></g><g id="SVGRepo_iconCarrier"> <g> <g> <path d="M421.023,153.989c0-58.661-47.726-106.386-106.388-106.386c-0.071,0-0.143,0.002-0.215,0.003 C296.621,18.393,264.445,0,229.837,0c-52.066,0-94.866,40.428-98.663,91.541c-23.849,12.348-40.196,37.244-40.196,65.902v44.694 c0,85.706,65.679,156.352,149.346,164.273v114.239H198.77c-8.657,0-15.676,7.019-15.676,15.676s7.019,15.676,15.676,15.676 h114.463c8.657,0,15.676-7.019,15.676-15.676s-7.019-15.676-15.676-15.676h-41.557v-114.24 c83.668-7.922,149.346-78.568,149.346-164.273v-44.694c0-0.584-0.038-1.159-0.1-1.727 C420.985,155.148,421.023,154.572,421.023,153.989z M314.636,78.954c37.211,0.001,68.168,27.233,74.023,62.811H240.61 C246.465,106.187,277.423,78.954,314.636,78.954z M229.837,31.352c19.209,0,37.317,8.3,49.96,22.114 c-26.443,9.19-48.17,28.534-60.499,53.343c-13.545-14.475-32.799-23.546-54.14-23.546c-0.355,0-0.705,0.022-1.06,0.026 C171.18,53.546,197.957,31.352,229.837,31.352z M165.158,114.616c18.083,0,33.572,11.269,39.844,27.15h-79.688 C131.586,125.885,147.075,114.616,165.158,114.616z M389.672,202.135h-0.001c0,73.705-59.965,133.67-133.67,133.67 s-133.67-59.965-133.67-133.67v-29.018h267.341V202.135z"></path> </g> </g> </g></svg>