<?xml version="1.0" encoding="utf-8"?>
<!-- Generator: Adobe Illustrator 23.0.5, SVG Export Plug-In . SVG Version: 6.00 Build 0)  -->
<svg version="1.1" id="Capa_1" xmlns="http://www.w3.org/2000/svg" xmlns:xlink="http://www.w3.org/1999/xlink" x="0px" y="0px"
	 viewBox="0 0 200 154" style="enable-background:new 0 0 200 154;" xml:space="preserve">
<style type="text/css">
	.st0{fill:none;stroke:#000000;stroke-miterlimit:10;}
	.st1{fill:#D7282F;}
</style>
<line class="st0" x1="200" y1="0" x2="200" y2="154"/>
<path class="st1" d="M162.1,84.6c-0.3-3.2,1.7-8.6,5-8.9c2-0.2,3.3,2.4,1.9,6.1c-0.8,2.3-2.2,5.4-4.6,5.6
	C163.2,87.6,162.3,86.4,162.1,84.6 M148,56.7c-3.7,0.4-3-8,0.5-8.3c0.2,0,0.5,0,0.7,0l0,0.2c0.1,0.9,0.6,1.8,1.3,2.4
	C150.5,53.9,149.6,56.5,148,56.7 M139.9,46.5c2.4-0.2,2.4-2.8,0.3-2.6C138,44.1,137.7,46.7,139.9,46.5 M142.9,86.6
	c2.3-3,3.9-6,4.5-7c3.5,2.5,4.2,10.4-0.7,10.8c-0.5,0-0.8,0-1.2-0.1C145.4,89.6,144.5,87.3,142.9,86.6 M132.4,84.2
	c0.6-5.1,3.9-13.1,6-13.3C142.1,70.6,138.1,82.4,132.4,84.2 M116.3,86.2c0.3-2.5,1.9-5.8,4.4-6c2.2-0.2,1.1,5.5-3.8,6L116.3,86.2z
	 M95.3,92.4l1.1-4.1c1.2-2.1,3-4.7,5.1-4.9c3.6-0.3,1.9,10.8-3.6,11.3C96.5,94.8,95.7,93.6,95.3,92.4 M75.6,94.3l1.1-4
	c1.2-2.2,3-4.9,5.1-5.1c3.6-0.3,1.9,10.8-3.6,11.3C76.8,96.7,76,95.6,75.6,94.3 M69.1,60.1c0.3-1.9,1.5-4.1,3.3-4.3
	c1.5-0.1,0.7,3.9-2.7,4.2L69.1,60.1z M62,97.3c-5.4,0.5-4.4-11.3,0.6-11.7c0.3,0,0.7,0,1.1,0.1l0,0.2c0.1,1.3,0.8,2.6,2.5,3.6
	C66.6,93.2,64.2,97.1,62,97.3 M54.2,71.2l3.2-0.3c0.8-1.6,1.2-3,2.4-7l1.1-4.2c2.2-0.3,4.2-0.5,5.9-0.7c-0.6,1.1-0.8,2.4-0.7,3.7
	c0.2,2.2,2.1,3.7,5.1,3.4c4.5-0.4,7.4-4.5,9.1-10.2l1.5-0.1c0.6-0.1,1.3,0.1,0.9,1.2c-0.9,2.4-1.3,4-1.1,5.4
	c0.2,2.4,1.9,2.6,3.2,2.5c3.1-0.3,4.9-3.5,6.5-10l1.6-0.2c0.7-0.1,1.3,0.2,0.9,1.2c-0.9,2.5-1.3,4-1.1,5.3c0.2,2.5,1.9,2.7,2.9,2.6
	c2-0.2,3.4-1.9,4.2-3.2c0.4,1.8,1.5,2.7,3.3,2.5c1.6-0.2,2.9-1.7,3.6-2.9c0.3,1.8,1.9,2.4,3.1,2.3c2-0.2,3.4-2.1,4.2-3.4
	c0.6,1.5,2.3,2.8,4.6,2.6c2.5-0.2,4.6-2,6-4.1c0.4,1.7,2.1,3.3,5,3c2.2-0.2,4.2-1.8,5.6-3.6l0,0.2c0.2,2.1,1.9,2.6,3.2,2.5
	c2-0.2,3.3-2,4.1-3.3c0.4,1.6,1.7,2.8,3.9,2.5c3-0.3,5.4-3.7,6.1-6.8l0.7,0c1.5-0.1,2.2-1,2.4-1.5L155,50c-0.3,0.5-0.9,0.7-1.2,0.7
	c-0.3,0-0.6,0.1-0.8,0c0.1-0.5,0-0.9,0-1.4c-0.2-2.5-2.5-3-3.5-2c-0.2-0.1-0.6-0.1-1.1,0c-3.4,0.3-5.7,4.1-5.8,7.2
	c-0.5,0.9-1.6,2.8-3.2,3c-0.7,0.1-1.1-0.4-1.2-1.2c-0.2-1.7,1.3-5.9,2-7.9l-2.7,0.3c-0.6,1.5-1.4,3.6-1.9,5.7c-1.1,2-3.1,3.8-5,4
	c-1.6,0.2-2.9-0.7-3.1-2.7c-0.2-1.9,1-5.2,3.2-5.5c1.6-0.2,1.3,1.9,0.3,2.8l0.5,0.5c1.2-0.1,2.9-1.2,2.8-2.8c-0.1-1-1.1-1.9-3.3-1.7
	c-2.9,0.3-5.8,3.1-6.3,6.4c-1.1,2-2.9,3.8-4.9,4c-1.6,0.2-2.9-0.9-3.1-3.1c-0.2-2,1-5.4,3.2-5.6c1.5-0.1,1.3,2.2,0,3.3l0.5,0.6
	c1.7-0.2,3.2-1.9,3.1-3.3c-0.1-1.2-1.4-2-3.3-1.8c-3.2,0.3-6.5,4-6.4,7.7c-0.4,1-1.6,2.8-3.1,3c-0.7,0.1-1.1-0.4-1.2-1.2
	c-0.2-1.7,1.3-5.9,2-7.9l-2.7,0.3c-0.6,1.5-1.5,3.8-2,5.9c-0.4,1.6-1.4,3.3-2.7,3.4c-2.9,0.3-1.4-5.8,0.8-9l-2.8,0.3
	c-1,1.5-2.2,4.3-2.4,6.5c-0.4,0.9-1.5,2.8-3.2,3c-0.6,0.1-1-0.4-1-1.2c-0.2-2.2,1.6-5.4,1.5-6.7c-0.1-1-1-1.4-2.6-1.3
	c-0.7,0.1-1.6,0.2-2.7,0.3l0.3-1.3l-1.7,0.2c-1.1,5.1-2.7,10.9-4.9,11.1c-0.6,0.1-1-0.4-1-1.2c-0.2-2.3,1.6-5.3,1.5-6.7
	c-0.1-1-0.8-1.4-2.6-1.3l-3.2,0.3l-1,0.1c-1.1,5.1-3.2,9.7-6.9,10c-1.6,0.2-3-0.6-3.2-2.7l0.8-0.1c3.4-0.3,6.2-2.4,6-4.4
	c-0.1-1.5-1.4-2.3-3.4-2.1c-1.7,0.2-3.4,1.3-4.6,2.8c-1.4,0.1-3.7,0.4-6.5,0.7c0.6-2.3,1.3-4.6,1.9-5.6c2.4-0.3,5.1-0.8,7.5-1.1
	c1.2-0.1,2.5-0.2,3.6-0.1l1-2.9c-0.2-0.1-0.9,0-1.2,0c-6.1,0.6-11.4,2.7-16.1,3.2c-1.5,0.1-2.6,0-3.2-0.3l-0.4,1.1
	c0.6,0.9,2.2,1,4,0.8l1.5-0.1c-0.6,1.1-1.3,3.3-1.9,5.4L56.1,59l-0.4,1.6c0.7-0.2,1.5-0.3,2.2-0.4l-1,4
	C55.6,68.1,55.1,69.5,54.2,71.2 M29.1,102.4c-0.3-2.9,5.3-5.7,12-7.6c2.6,1.9,5.3,3.8,5.6,7.2c0.2,2.4-2.4,4.7-6.8,5.1
	C35.2,107.5,29.5,106.3,29.1,102.4 M24.6,104.5c0.4,4.4,6.4,6,11.9,5.5c6.3-0.6,15.2-5,14.6-10.9c-0.2-2.5-1.7-4.4-3.6-6
	c2.6-0.6,5.2-1,7.2-1.3c-1.3,4.6,0.1,9.2,5.2,8.7c4.5-0.4,7.8-5.5,8.7-10.1c1.8,0.2,3.7-0.5,5.1-1.9l-5.3,19.1l3.7-0.4l2.8-10.2
	c0.7,1,1.8,1.6,3,1.8c2,0.6,9.2-0.2,13.2-3.8l-3.5,12.4l3.7-0.4l3.3-11.9c0.6,0.9,1.8,1.6,3,1.8l0.9,0.1c4.6,0.3,10.6-2.1,13.6-7
	c0.5,2.5,2.8,5.1,6.5,4.7c3.9-0.4,7.4-2.3,9.6-5.8c0.6,2.6,2.4,4.6,6,4.2c2.1-0.2,4.3-1.7,6.1-3.7c0.5,1.5,2.5,2.7,4.4,3
	c3.4,0.5,10.4-1,13.7-4.6c0.7,2,2.4,2.9,4,2.8c2.7-0.3,4.4-1.9,5.7-3.6c0.6,2.3,2.4,2.9,3.7,2.8c3.8-0.4,5-3.2,5.7-4.3l-1.1-0.8
	c-0.3,0.6-1.2,1.9-2.7,2c-0.8,0.1-1.3-0.5-1.4-1.4c-0.2-1.9,2.1-9.4,2.9-12l-3.7,0.4l-0.3,1.3c-0.6-1-2-1.4-3.5-1.3
	c-5.6,0.5-9.7,6.5-9.6,11.7c-1.3,2.1-3.9,3.6-6.4,4.1c3.5-3.7,3.9-10.1-0.6-13.2c-0.9-0.5-2.2-1-3.5-1.1l-1.8,3.4
	c-1.6,3.1-6.4,10.8-10.1,11.1c-2.1,0.2-2.9-1.5-3.2-3.9l0-0.3c7.3-2,17.2-18.8,8.1-18c-6,0.6-11.6,12.3-12.2,18.5
	c-1.8,3.2-4.1,5-7.4,5.3c-2.1,0.2-4.2-0.9-4.5-3.9l1-0.1c4.6-0.4,8.8-3.2,8.5-6.2c-0.2-2.1-2-3.3-4.9-3c-3.5,0.3-7.1,3.7-8.5,7.7
	c-1.8,4.6-5.7,7.6-8.5,8.5c4.9-4.9,5.8-15.2-0.1-14.6c-2.3,0.2-4.8,2.1-6.1,3.6l1-3.8l-3.6,0.3l-3.1,11.3c-1.4,2.6-4.6,4.5-7.7,5.1
	c4.9-5,5.7-15.2-0.2-14.6c-2,0.2-4.8,2.1-6.2,3.7l1-3.7l-3.6,0.3L74.4,86c-1.1,1.6-3.6,3.5-5.5,2.7c0.1-0.6,0.1-1.3,0.1-1.9
	c-0.3-3.5-3.6-4.3-4.7-2.8c-0.5-0.1-0.9,0-1.5,0c-3.4,0.3-6,3-7.3,6.2c-2.4,0.3-5.9,0.9-9.5,1.7c-3.1-2.2-6.4-3.8-6.6-5.9
	c-0.3-3,3.3-4.3,7.7-4.9c2.4-0.3,5.8-0.6,8.1-0.3l1.6-4.4c-1.1,0-2,0.1-2.7,0.1c-5.4,0.5-10.3,2.4-13.7,4.7
	c-3.2,2.2-5.3,4.8-5.1,6.9c0.2,2.4,2,4,4.1,5.4C31.4,96.1,24.1,99.7,24.6,104.5"/>
</svg>
