<svg xmlns="http://www.w3.org/2000/svg" width="98" height="98" viewBox="0 0 98 98">
    <g fill="none" fill-rule="evenodd">
        <g>
            <g transform="translate(-139 -132) translate(139 132)">
                <rect width="98" height="98" fill="#FA0050" rx="6"/>
                <g fill="#FFF">
                    <path d="M37.485.029L34.56 0H.961C.431 0 0 .428 0 .956v5.293c0 5.806 4.123 9.003 11.61 9.003l26.52.05c2.803 0 5.075 2.258 5.075 5.043s-2.272 5.043-5.075 5.043H8.39c-.433 0-.811.292-.917.71L.437 53.708c-.072.282-.009.58.17.809.18.229.456.363.748.363h9.429c3.533 0 5.23-2.914 5.63-4.442l2.776-10.036h18.94c11.203 0 20.317-9.055 20.317-20.187C58.447 9.084 49.333.03 38.13.03h-.645z" transform="translate(21.56 21.56)"/>
                </g>
            </g>
        </g>
    </g>
</svg>
