<?xml version="1.0"?>
<svg width="200" height="154" xmlns="http://www.w3.org/2000/svg" xmlns:svg="http://www.w3.org/2000/svg" enable-background="new 0 0 200 154" version="1.1" xml:space="preserve">
 <style type="text/css">.st0{fill:none;stroke:#000000;stroke-miterlimit:10;}
	.st1{fill:#D7282F;}</style>
 <g class="layer">
  <title>Layer 1</title>
  <path class="st1" d="m162.1,84.6c-0.3,-3.2 1.7,-8.6 5,-8.9c2,-0.2 3.3,2.4 1.9,6.1c-0.8,2.3 -2.2,5.4 -4.6,5.6c-1.2,0.2 -2.1,-1 -2.3,-2.8m-14.1,-27.9c-3.7,0.4 -3,-8 0.5,-8.3c0.2,0 0.5,0 0.7,0l0,0.2c0.1,0.9 0.6,1.8 1.3,2.4c0,2.9 -0.9,5.5 -2.5,5.7m-8.1,-10.2c2.4,-0.2 2.4,-2.8 0.3,-2.6c-2.2,0.2 -2.5,2.8 -0.3,2.6m3,40.1c2.3,-3 3.9,-6 4.5,-7c3.5,2.5 4.2,10.4 -0.7,10.8c-0.5,0 -0.8,0 -1.2,-0.1c-0.1,-0.7 -1,-3 -2.6,-3.7m-10.5,-2.4c0.6,-5.1 3.9,-13.1 6,-13.3c3.7,-0.3 -0.3,11.5 -6,13.3m-16.1,2c0.3,-2.5 1.9,-5.8 4.4,-6c2.2,-0.2 1.1,5.5 -3.8,6l-0.6,0zm-21,6.2l1.1,-4.1c1.2,-2.1 3,-4.7 5.1,-4.9c3.6,-0.3 1.9,10.8 -3.6,11.3c-1.4,0.1 -2.2,-1.1 -2.6,-2.3m-19.7,1.9l1.1,-4c1.2,-2.2 3,-4.9 5.1,-5.1c3.6,-0.3 1.9,10.8 -3.6,11.3c-1.4,0.2 -2.2,-0.9 -2.6,-2.2m-6.5,-34.2c0.3,-1.9 1.5,-4.1 3.3,-4.3c1.5,-0.1 0.7,3.9 -2.7,4.2l-0.6,0.1zm-7.1,37.2c-5.4,0.5 -4.4,-11.3 0.6,-11.7c0.3,0 0.7,0 1.1,0.1l0,0.2c0.1,1.3 0.8,2.6 2.5,3.6c0.4,3.7 -2,7.6 -4.2,7.8m-7.8,-26.1l3.2,-0.3c0.8,-1.6 1.2,-3 2.4,-7l1.1,-4.2c2.2,-0.3 4.2,-0.5 5.9,-0.7c-0.6,1.1 -0.8,2.4 -0.7,3.7c0.2,2.2 2.1,3.7 5.1,3.4c4.5,-0.4 7.4,-4.5 9.1,-10.2l1.5,-0.1c0.6,-0.1 1.3,0.1 0.9,1.2c-0.9,2.4 -1.3,4 -1.1,5.4c0.2,2.4 1.9,2.6 3.2,2.5c3.1,-0.3 4.9,-3.5 6.5,-10l1.6,-0.2c0.7,-0.1 1.3,0.2 0.9,1.2c-0.9,2.5 -1.3,4 -1.1,5.3c0.2,2.5 1.9,2.7 2.9,2.6c2,-0.2 3.4,-1.9 4.2,-3.2c0.4,1.8 1.5,2.7 3.3,2.5c1.6,-0.2 2.9,-1.7 3.6,-2.9c0.3,1.8 1.9,2.4 3.1,2.3c2,-0.2 3.4,-2.1 4.2,-3.4c0.6,1.5 2.3,2.8 4.6,2.6c2.5,-0.2 4.6,-2 6,-4.1c0.4,1.7 2.1,3.3 5,3c2.2,-0.2 4.2,-1.8 5.6,-3.6l0,0.2c0.2,2.1 1.9,2.6 3.2,2.5c2,-0.2 3.3,-2 4.1,-3.3c0.4,1.6 1.7,2.8 3.9,2.5c3,-0.3 5.4,-3.7 6.1,-6.8l0.7,0c1.5,-0.1 2.2,-1 2.4,-1.5l-0.6,-0.6c-0.3,0.5 -0.9,0.7 -1.2,0.7c-0.3,0 -0.6,0.1 -0.8,0c0.1,-0.5 0,-0.9 0,-1.4c-0.2,-2.5 -2.5,-3 -3.5,-2c-0.2,-0.1 -0.6,-0.1 -1.1,0c-3.4,0.3 -5.7,4.1 -5.8,7.2c-0.5,0.9 -1.6,2.8 -3.2,3c-0.7,0.1 -1.1,-0.4 -1.2,-1.2c-0.2,-1.7 1.3,-5.9 2,-7.9l-2.7,0.3c-0.6,1.5 -1.4,3.6 -1.9,5.7c-1.1,2 -3.1,3.8 -5,4c-1.6,0.2 -2.9,-0.7 -3.1,-2.7c-0.2,-1.9 1,-5.2 3.2,-5.5c1.6,-0.2 1.3,1.9 0.3,2.8l0.5,0.5c1.2,-0.1 2.9,-1.2 2.8,-2.8c-0.1,-1 -1.1,-1.9 -3.3,-1.7c-2.9,0.3 -5.8,3.1 -6.3,6.4c-1.1,2 -2.9,3.8 -4.9,4c-1.6,0.2 -2.9,-0.9 -3.1,-3.1c-0.2,-2 1,-5.4 3.2,-5.6c1.5,-0.1 1.3,2.2 0,3.3l0.5,0.6c1.7,-0.2 3.2,-1.9 3.1,-3.3c-0.1,-1.2 -1.4,-2 -3.3,-1.8c-3.2,0.3 -6.5,4 -6.4,7.7c-0.4,1 -1.6,2.8 -3.1,3c-0.7,0.1 -1.1,-0.4 -1.2,-1.2c-0.2,-1.7 1.3,-5.9 2,-7.9l-2.7,0.3c-0.6,1.5 -1.5,3.8 -2,5.9c-0.4,1.6 -1.4,3.3 -2.7,3.4c-2.9,0.3 -1.4,-5.8 0.8,-9l-2.8,0.3c-1,1.5 -2.2,4.3 -2.4,6.5c-0.4,0.9 -1.5,2.8 -3.2,3c-0.6,0.1 -1,-0.4 -1,-1.2c-0.2,-2.2 1.6,-5.4 1.5,-6.7c-0.1,-1 -1,-1.4 -2.6,-1.3c-0.7,0.1 -1.6,0.2 -2.7,0.3l0.3,-1.3l-1.7,0.2c-1.1,5.1 -2.7,10.9 -4.9,11.1c-0.6,0.1 -1,-0.4 -1,-1.2c-0.2,-2.3 1.6,-5.3 1.5,-6.7c-0.1,-1 -0.8,-1.4 -2.6,-1.3l-3.2,0.3l-1,0.1c-1.1,5.1 -3.2,9.7 -6.9,10c-1.6,0.2 -3,-0.6 -3.2,-2.7l0.8,-0.1c3.4,-0.3 6.2,-2.4 6,-4.4c-0.1,-1.5 -1.4,-2.3 -3.4,-2.1c-1.7,0.2 -3.4,1.3 -4.6,2.8c-1.4,0.1 -3.7,0.4 -6.5,0.7c0.6,-2.3 1.3,-4.6 1.9,-5.6c2.4,-0.3 5.1,-0.8 7.5,-1.1c1.2,-0.1 2.5,-0.2 3.6,-0.1l1,-2.9c-0.2,-0.1 -0.9,0 -1.2,0c-6.1,0.6 -11.4,2.7 -16.1,3.2c-1.5,0.1 -2.6,0 -3.2,-0.3l-0.4,1.1c0.6,0.9 2.2,1 4,0.8l1.5,-0.1c-0.6,1.1 -1.3,3.3 -1.9,5.4l-1.9,0.6l-0.4,1.6c0.7,-0.2 1.5,-0.3 2.2,-0.4l-1,4c-1.3,3.9 -1.8,5.3 -2.7,7m-25.1,31.2c-0.3,-2.9 5.3,-5.7 12,-7.6c2.6,1.9 5.3,3.8 5.6,7.2c0.2,2.4 -2.4,4.7 -6.8,5.1c-4.7,0.4 -10.4,-0.8 -10.8,-4.7m-4.5,2.1c0.4,4.4 6.4,6 11.9,5.5c6.3,-0.6 15.2,-5 14.6,-10.9c-0.2,-2.5 -1.7,-4.4 -3.6,-6c2.6,-0.6 5.2,-1 7.2,-1.3c-1.3,4.6 0.1,9.2 5.2,8.7c4.5,-0.4 7.8,-5.5 8.7,-10.1c1.8,0.2 3.7,-0.5 5.1,-1.9l-5.3,19.1l3.7,-0.4l2.8,-10.2c0.7,1 1.8,1.6 3,1.8c2,0.6 9.2,-0.2 13.2,-3.8l-3.5,12.4l3.7,-0.4l3.3,-11.9c0.6,0.9 1.8,1.6 3,1.8l0.9,0.1c4.6,0.3 10.6,-2.1 13.6,-7c0.5,2.5 2.8,5.1 6.5,4.7c3.9,-0.4 7.4,-2.3 9.6,-5.8c0.6,2.6 2.4,4.6 6,4.2c2.1,-0.2 4.3,-1.7 6.1,-3.7c0.5,1.5 2.5,2.7 4.4,3c3.4,0.5 10.4,-1 13.7,-4.6c0.7,2 2.4,2.9 4,2.8c2.7,-0.3 4.4,-1.9 5.7,-3.6c0.6,2.3 2.4,2.9 3.7,2.8c3.8,-0.4 5,-3.2 5.7,-4.3l-1.1,-0.8c-0.3,0.6 -1.2,1.9 -2.7,2c-0.8,0.1 -1.3,-0.5 -1.4,-1.4c-0.2,-1.9 2.1,-9.4 2.9,-12l-3.7,0.4l-0.3,1.3c-0.6,-1 -2,-1.4 -3.5,-1.3c-5.6,0.5 -9.7,6.5 -9.6,11.7c-1.3,2.1 -3.9,3.6 -6.4,4.1c3.5,-3.7 3.9,-10.1 -0.6,-13.2c-0.9,-0.5 -2.2,-1 -3.5,-1.1l-1.8,3.4c-1.6,3.1 -6.4,10.8 -10.1,11.1c-2.1,0.2 -2.9,-1.5 -3.2,-3.9l0,-0.3c7.3,-2 17.2,-18.8 8.1,-18c-6,0.6 -11.6,12.3 -12.2,18.5c-1.8,3.2 -4.1,5 -7.4,5.3c-2.1,0.2 -4.2,-0.9 -4.5,-3.9l1,-0.1c4.6,-0.4 8.8,-3.2 8.5,-6.2c-0.2,-2.1 -2,-3.3 -4.9,-3c-3.5,0.3 -7.1,3.7 -8.5,7.7c-1.8,4.6 -5.7,7.6 -8.5,8.5c4.9,-4.9 5.8,-15.2 -0.1,-14.6c-2.3,0.2 -4.8,2.1 -6.1,3.6l1,-3.8l-3.6,0.3l-3.1,11.3c-1.4,2.6 -4.6,4.5 -7.7,5.1c4.9,-5 5.7,-15.2 -0.2,-14.6c-2,0.2 -4.8,2.1 -6.2,3.7l1,-3.7l-3.6,0.3l-1.1,4.1c-1.1,1.6 -3.6,3.5 -5.5,2.7c0.1,-0.6 0.1,-1.3 0.1,-1.9c-0.3,-3.5 -3.6,-4.3 -4.7,-2.8c-0.5,-0.1 -0.9,0 -1.5,0c-3.4,0.3 -6,3 -7.3,6.2c-2.4,0.3 -5.9,0.9 -9.5,1.7c-3.1,-2.2 -6.4,-3.8 -6.6,-5.9c-0.3,-3 3.3,-4.3 7.7,-4.9c2.4,-0.3 5.8,-0.6 8.1,-0.3l1.6,-4.4c-1.1,0 -2,0.1 -2.7,0.1c-5.4,0.5 -10.3,2.4 -13.7,4.7c-3.2,2.2 -5.3,4.8 -5.1,6.9c0.2,2.4 2,4 4.1,5.4c-8,2.6 -15.3,6.2 -14.8,11" id="svg_2"/>
 </g>
</svg>