<?xml version="1.0" encoding="UTF-8" standalone="no"?>
<svg
   xmlns:dc="http://purl.org/dc/elements/1.1/"
   xmlns:cc="http://creativecommons.org/ns#"
   xmlns:rdf="http://www.w3.org/1999/02/22-rdf-syntax-ns#"
   xmlns:svg="http://www.w3.org/2000/svg"
   xmlns="http://www.w3.org/2000/svg"
   viewBox="0 0 793.70135 1122.52"
   height="1122.52"
   width="793.70135"
   xml:space="preserve"
   id="svg2"
   version="1.1"><metadata
     id="metadata8"><rdf:RDF><cc:Work
         rdf:about=""><dc:format>image/svg+xml</dc:format><dc:type
           rdf:resource="http://purl.org/dc/dcmitype/StillImage" /></cc:Work></rdf:RDF></metadata><defs
     id="defs6"><clipPath
       id="clipPath18"
       clipPathUnits="userSpaceOnUse"><path
         id="path16"
         d="M 0,841.89 H 595.276 V 0 H 0 Z" /></clipPath></defs><g
     transform="matrix(1.3333333,0,0,-1.3333333,0,1122.52)"
     id="g10"><g
       id="g12"><g
         clip-path="url(#clipPath18)"
         id="g14"><g
           transform="translate(77.7467,364.1324)"
           id="g20"><path
             id="path22"
             style="fill:#d22c3b;fill-opacity:1;fill-rule:nonzero;stroke:none"
             d="m 0,0 c 1.245,-12.925 18.874,-17.751 34.861,-16.211 18.368,1.768 44.597,14.593 42.926,31.94 -0.72,7.483 -5.019,12.906 -10.612,17.516 7.725,1.774 15.175,2.835 21.265,3.765 -3.857,-13.417 0.207,-27.101 15.173,-25.66 13.265,1.277 22.807,16.271 25.644,29.59 5.201,-0.529 10.852,1.388 14.914,5.555 l -15.541,-56.08 10.884,1.048 8.101,29.96 c 1.995,-2.898 5.253,-4.644 8.753,-5.337 6.012,-1.824 27.068,0.547 38.736,11.283 l -10.232,-36.345 10.884,1.048 9.683,34.919 c 1.623,-2.59 5.254,-4.644 8.753,-5.337 l 2.787,-0.418 c 13.462,-0.764 30.998,6.075 39.893,20.663 1.401,-7.418 8.309,-14.992 19.194,-13.944 11.565,1.114 21.651,6.891 28.217,17.136 1.773,-7.725 7.125,-13.389 17.669,-12.374 6.123,0.59 12.566,4.986 17.824,10.985 1.446,-4.323 7.282,-7.881 12.855,-8.718 10.093,-1.431 30.613,2.948 40.24,13.487 1.95,-5.991 7.007,-8.594 11.769,-8.135 7.824,0.753 12.84,5.699 16.836,10.546 1.676,-6.704 7.007,-8.594 10.749,-8.234 11.224,1.081 14.553,9.298 16.639,12.588 l -3.323,2.427 c -0.857,-1.799 -3.591,-5.496 -8.013,-5.921 -2.381,-0.23 -3.905,1.34 -4.167,4.061 -0.524,5.442 6.256,27.723 8.63,35.161 l -10.885,-1.048 -1,-3.873 c -1.655,2.93 -5.901,4.238 -10.323,3.812 -16.327,-1.572 -28.36,-19.209 -28.28,-34.306 -3.865,-6.208 -11.328,-10.703 -18.746,-12.104 10.275,10.945 11.568,29.608 -1.66,38.633 -2.545,1.471 -6.45,2.812 -10.257,3.132 l -5.205,-10.114 c -4.624,-9.027 -18.92,-31.689 -29.805,-32.737 -6.122,-0.589 -8.655,4.317 -9.342,11.46 l -0.099,1.02 c 21.409,5.838 50.629,55.34 23.758,52.752 -17.688,-1.703 -33.932,-36.224 -35.97,-54.271 -5.271,-9.434 -11.988,-14.543 -21.852,-15.493 -6.123,-0.59 -12.266,2.595 -13.117,11.439 l 3.061,0.295 c 13.606,1.31 25.876,9.357 25.025,18.201 -0.59,6.123 -5.745,9.746 -14.249,8.927 -10.204,-0.983 -20.917,-10.94 -24.939,-22.656 -5.218,-13.548 -16.742,-22.21 -25.049,-25.07 14.402,14.433 16.994,44.549 -0.353,42.879 -6.803,-0.655 -14.168,-6.171 -17.856,-10.645 l 3.033,11.277 -10.544,-1.015 -9.167,-33.153 c -4.074,-7.601 -13.479,-13.313 -22.598,-14.878 14.37,14.773 16.655,44.516 -0.692,42.846 -5.783,-0.557 -14.168,-6.171 -18.164,-11.018 l 3.066,10.937 -10.544,-1.015 -3.099,-10.597 c -3.316,-4.782 -10.681,-10.298 -16.045,-8.068 0.176,1.734 0.32,3.807 0.156,5.508 -0.982,10.204 -10.494,12.721 -13.842,8.279 -1.394,0.209 -2.754,0.078 -4.455,-0.085 -9.864,-0.95 -17.68,-8.912 -21.59,-18.214 -7.111,-1.028 -17.249,-2.691 -28.003,-5.1 -9.191,6.325 -18.932,11.223 -19.522,17.345 -0.851,8.844 9.771,12.613 22.631,14.538 7.111,1.028 17.008,1.638 23.941,0.932 l 4.604,12.802 C 90.92,82.564 88.199,82.302 86.158,82.105 70.171,80.566 55.938,75.076 45.95,68.278 36.61,61.886 30.495,54.088 31.084,47.965 31.772,40.822 37.026,36.178 43.266,31.973 19.915,24.919 -1.376,14.286 0,0 M 13.114,6.412 C 12.296,14.916 28.681,23.016 48.389,28.69 56.121,23.255 63.887,17.48 64.836,7.616 65.524,0.473 57.918,-6.095 44.992,-7.34 31.046,-8.683 14.228,-5.153 13.114,6.412 m 228.341,124.29 c 0.864,-5.41 5.483,-7.025 9.224,-6.665 5.783,0.557 10.053,6.118 12.414,10.121 1.787,-4.291 6.634,-8.287 13.437,-7.632 7.483,0.721 13.52,5.765 17.725,12.006 1.172,-5.037 6.085,-9.713 14.589,-8.894 6.463,0.622 12.192,5.293 16.496,10.514 l 0.065,-0.68 c 0.59,-6.123 5.548,-7.705 9.29,-7.345 5.782,0.557 9.745,5.745 12.106,9.748 1.139,-4.696 4.901,-8.11 11.364,-7.488 8.843,0.851 15.782,10.789 17.992,19.927 l 2.074,-0.143 c 4.422,0.425 6.573,3.036 7.123,4.462 l -2.205,1.504 c -0.889,-1.459 -2.557,-1.963 -3.578,-2.061 -1.02,-0.098 -1.701,-0.164 -2.414,0.111 0.21,1.393 0.079,2.754 -0.052,4.114 -0.721,7.483 -7.38,8.902 -10.18,5.886 -0.713,0.275 -1.733,0.176 -3.094,0.045 -9.864,-0.949 -16.704,-11.907 -17.181,-21.222 -1.471,-2.545 -4.689,-8.347 -9.451,-8.806 -2.041,-0.196 -3.192,1.066 -3.421,3.447 -0.492,5.102 3.837,17.191 6.001,23.236 l -7.823,-0.754 c -1.648,-4.278 -4.119,-10.695 -5.604,-16.674 -3.217,-5.803 -9.221,-11.187 -14.664,-11.711 -4.762,-0.459 -8.425,1.935 -9.015,8.058 -0.524,5.442 2.981,15.392 9.444,16.014 4.762,0.458 3.958,-5.455 0.786,-8.164 l 1.524,-1.569 c 3.402,0.327 8.582,3.572 8.123,8.334 -0.294,3.062 -3.277,5.521 -9.74,4.899 -8.504,-0.819 -16.967,-9.187 -18.431,-18.94 -3.218,-5.803 -8.542,-11.121 -14.324,-11.678 -4.762,-0.459 -8.491,2.615 -9.113,9.078 -0.557,5.782 2.948,15.732 9.411,16.355 4.421,0.425 3.716,-6.509 -0.104,-9.623 l 1.557,-1.91 c 5.102,0.492 9.406,5.712 9.013,9.794 -0.328,3.401 -3.991,5.795 -9.774,5.238 -9.524,-0.917 -19.118,-11.796 -18.75,-22.746 -1.099,-2.853 -4.689,-8.348 -9.111,-8.774 -2.041,-0.196 -3.193,1.066 -3.422,3.447 -0.491,5.102 3.838,17.191 6.002,23.236 l -7.823,-0.753 c -1.648,-4.279 -4.427,-11.069 -5.879,-17.388 -1.275,-4.586 -4.218,-9.675 -7.959,-10.036 -8.504,-0.818 -4.052,17.119 2.273,26.31 l -8.164,-0.786 c -3.008,-4.409 -6.337,-12.626 -7.075,-19.219 -1.131,-2.512 -4.349,-8.315 -9.451,-8.806 -1.701,-0.164 -2.852,1.098 -3.081,3.479 -0.623,6.463 4.648,15.896 4.288,19.638 -0.295,3.061 -2.807,4.192 -7.569,3.734 -2.04,-0.197 -4.762,-0.459 -7.823,-0.753 l 1,3.872 -5.102,-0.491 c -3.353,-15.085 -7.904,-32.001 -14.367,-32.624 -1.7,-0.163 -2.852,1.099 -3.081,3.48 -0.655,6.803 4.681,15.556 4.288,19.638 -0.294,3.061 -2.466,4.225 -7.568,3.734 l -9.524,-0.917 -3.062,-0.295 c -3.353,-15.085 -9.285,-28.358 -20.169,-29.406 -4.762,-0.459 -8.766,1.902 -9.355,8.025 l 2.381,0.229 c 9.864,0.95 18.216,6.904 17.627,13.026 -0.426,4.422 -4.09,6.816 -9.872,6.259 -5.102,-0.491 -9.942,-3.704 -13.631,-8.178 -4.082,-0.393 -10.885,-1.048 -19.015,-2.175 1.758,6.692 3.857,13.417 5.636,16.335 7.11,1.028 14.868,2.461 22.011,3.149 3.402,0.328 7.483,0.721 10.61,0.335 l 2.956,8.524 c -0.713,0.274 -2.754,0.078 -3.434,0.012 -18.028,-1.735 -33.556,-8.037 -47.162,-9.347 -4.422,-0.426 -7.549,-0.04 -9.348,0.817 l -1.065,-3.193 c 1.622,-2.59 6.45,-2.812 11.892,-2.288 l 4.422,0.426 c -1.746,-3.258 -3.878,-9.642 -5.669,-15.994 l -6.398,-1.303 -1.275,-4.585 c 2.009,0.536 4.39,0.766 6.398,1.302 L 94.624,118.966 C 90.975,106.943 89.635,103.038 87.032,97.981 l 9.524,0.917 c 2.296,4.684 3.603,8.929 6.944,20.58 l 3.276,12.331 c 6.43,0.962 12.212,1.519 17.314,2.01 -1.746,-3.258 -2.406,-7.097 -2.046,-10.839 0.623,-6.463 6.183,-10.734 15.027,-9.882 13.266,1.277 21.742,13.079 26.632,30.028 l 4.422,0.426 c 1.701,0.164 3.807,-0.32 2.741,-3.512 -2.746,-7.131 -3.681,-11.684 -3.288,-15.765 0.688,-7.143 5.548,-7.705 9.29,-7.345 9.184,0.884 14.455,10.318 19.149,29.308 l 4.762,0.458 c 2.041,0.197 3.84,-0.66 2.741,-3.512 -2.713,-7.471 -3.681,-11.683 -3.321,-15.425 0.721,-7.483 5.581,-8.045 8.642,-7.75 5.783,0.557 10.119,5.437 12.48,9.441 1.204,-5.377 4.528,-7.804 9.63,-7.312 4.762,0.458 8.451,4.933 10.504,8.564 M 109.872,21.222 c -15.987,-1.54 -12.8,33.097 1.827,34.505 1.02,0.099 2.073,-0.143 3.126,-0.385 l 0.066,-0.68 c 0.36,-3.742 2.454,-7.66 7.203,-10.636 1.388,-10.852 -5.76,-22.182 -12.222,-22.804 m 20.701,109.445 c 0.837,5.573 4.329,12.089 9.771,12.613 4.422,0.426 2.134,-11.467 -8.07,-12.449 z m 19.284,-100.446 3.341,11.651 c 3.493,6.515 8.927,14.248 15.05,14.838 10.544,1.015 5.46,-31.745 -10.527,-33.284 -4.422,-0.426 -6.79,2.779 -7.864,6.795 m 57.825,5.568 3.308,11.991 c 3.525,6.175 8.96,13.908 15.082,14.497 10.545,1.016 5.46,-31.744 -10.527,-33.283 -4.421,-0.426 -6.823,3.119 -7.863,6.795 m 61.78,17.964 c 1.013,7.307 5.571,17.015 13.054,17.736 6.463,0.622 3.273,-16.164 -11.013,-17.539 z m 47.149,5.913 c 1.653,14.921 11.397,38.517 17.519,39.107 10.885,1.048 -0.872,-33.727 -17.519,-39.107 m 30.883,-6.981 c 6.697,8.884 11.353,17.571 13.132,20.489 10.31,-7.247 12.197,-30.409 -2.089,-31.785 -1.361,-0.131 -2.414,0.111 -3.467,0.353 -0.197,2.041 -2.925,8.987 -7.576,10.943 m -8.952,117.919 c 7.143,0.687 7.103,8.236 0.981,7.646 -6.463,-0.622 -7.443,-8.269 -0.981,-7.646 m 23.828,-29.976 c -10.885,-1.048 -8.788,23.528 1.416,24.51 0.68,0.066 1.361,0.131 2.074,-0.143 l 0.065,-0.681 c 0.262,-2.721 1.885,-5.311 3.782,-7.188 0.106,-8.229 -2.575,-16.04 -7.337,-16.498 m 41.555,-82.167 c -0.917,9.525 5.125,25.211 14.649,26.128 5.782,0.557 9.597,-6.971 5.51,-18.007 -2.439,-6.758 -6.382,-15.72 -13.525,-16.407 -3.402,-0.328 -6.143,3.184 -6.634,8.286" /></g><g
           transform="translate(150.3774,317.962)"
           id="g24"><path
             id="path26"
             style="fill:#d52e3c;fill-opacity:1;fill-rule:nonzero;stroke:none"
             d="m 0,0 c 0,-1.272 -0.989,-2.26 -2.262,-2.26 -1.272,0 -2.261,0.988 -2.261,2.26 0,1.273 0.989,2.263 2.261,2.263 C -0.989,2.263 0,1.273 0,0" /></g><g
           transform="translate(458.4402,317.962)"
           id="g28"><path
             id="path30"
             style="fill:#d52e3c;fill-opacity:1;fill-rule:nonzero;stroke:none"
             d="m 0,0 c 0,-1.272 -0.989,-2.26 -2.262,-2.26 -1.272,0 -2.261,0.988 -2.261,2.26 0,1.273 0.989,2.263 2.261,2.263 C -0.989,2.263 0,1.273 0,0" /></g><g
           transform="translate(175.2233,318.2572)"
           id="g32"><path
             id="path34"
             style="fill:#d52e3c;fill-opacity:1;fill-rule:nonzero;stroke:none"
             d="M 0,0 C 0.224,0.032 0.458,0.055 0.7,0.071 0.943,0.086 1.185,0.094 1.429,0.094 1.671,0.094 1.914,0.086 2.157,0.071 2.399,0.055 2.623,0.032 2.829,0 V -8.258 C 2.437,-8.399 2.007,-8.521 1.541,-8.622 1.073,-8.725 0.588,-8.802 0.084,-8.858 c -0.504,-0.055 -1.008,-0.098 -1.513,-0.13 -0.504,-0.031 -0.98,-0.046 -1.428,-0.046 -1.494,0 -2.839,0.196 -4.033,0.588 -1.195,0.392 -2.204,0.96 -3.025,1.706 -0.822,0.744 -1.452,1.651 -1.891,2.717 -0.439,1.066 -0.658,2.274 -0.658,3.623 0,1.349 0.224,2.569 0.672,3.659 0.448,1.09 1.088,2.019 1.918,2.788 0.831,0.768 1.821,1.36 2.97,1.776 1.148,0.416 2.423,0.624 3.823,0.624 1.064,0 1.989,-0.059 2.773,-0.177 C 0.476,8.153 1.185,7.991 1.821,7.788 1.783,7.427 1.704,7.094 1.583,6.788 1.461,6.483 1.316,6.156 1.148,5.812 0.626,5.953 0.06,6.079 -0.546,6.188 -1.153,6.297 -1.914,6.353 -2.829,6.353 -3.819,6.353 -4.72,6.204 -5.532,5.906 -6.344,5.607 -7.035,5.172 -7.605,4.6 -8.175,4.027 -8.618,3.321 -8.935,2.483 -9.253,1.643 -9.411,0.683 -9.411,-0.4 c 0,-1.113 0.163,-2.074 0.49,-2.881 0.326,-0.809 0.789,-1.483 1.387,-2.025 0.597,-0.54 1.302,-0.94 2.114,-1.199 0.812,-0.259 1.713,-0.388 2.703,-0.388 0.598,0 1.12,0.027 1.569,0.082 0.448,0.055 0.83,0.121 1.148,0.2 z" /></g><g
           transform="translate(187.0434,326.4217)"
           id="g36"><path
             id="path38"
             style="fill:#d52e3c;fill-opacity:1;fill-rule:nonzero;stroke:none"
             d="m 0,0 h 11.064 c 0.056,-0.314 0.084,-0.659 0.084,-1.035 0,-0.173 -0.005,-0.353 -0.014,-0.541 -0.01,-0.189 -0.033,-0.362 -0.07,-0.518 H 2.857 v -4.847 h 6.554 c 0.037,-0.157 0.065,-0.325 0.084,-0.505 0.019,-0.181 0.028,-0.358 0.028,-0.53 0,-0.173 -0.009,-0.353 -0.028,-0.541 C 9.476,-8.705 9.448,-8.878 9.411,-9.034 H 2.857 v -5.789 h 8.431 c 0.056,-0.314 0.084,-0.658 0.084,-1.035 0,-0.173 -0.005,-0.353 -0.014,-0.541 -0.01,-0.188 -0.033,-0.361 -0.07,-0.518 H 0 Z" /></g><g
           transform="translate(206.4534,326.4217)"
           id="g40"><path
             id="path42"
             style="fill:#d52e3c;fill-opacity:1;fill-rule:nonzero;stroke:none"
             d="M 0,0 C 0.205,0.032 0.424,0.055 0.658,0.071 0.892,0.086 1.139,0.094 1.4,0.094 1.643,0.094 1.886,0.086 2.129,0.071 2.371,0.055 2.605,0.032 2.829,0 v -14.799 h 7.899 c 0.037,-0.173 0.06,-0.353 0.07,-0.541 0.009,-0.189 0.013,-0.362 0.013,-0.518 0,-0.376 -0.027,-0.729 -0.083,-1.059 H 0 Z" /></g><g
           transform="translate(227.7406,315.5052)"
           id="g44"><path
             id="path46"
             style="fill:#d52e3c;fill-opacity:1;fill-rule:nonzero;stroke:none"
             d="M 0,0 H 6.134 L 3.053,8.635 Z M 6.89,-2.095 H -0.757 L -2.129,-6 c -0.243,-0.031 -0.486,-0.055 -0.728,-0.071 -0.243,-0.015 -0.486,-0.023 -0.728,-0.023 -0.262,0 -0.518,0.008 -0.771,0.023 -0.252,0.016 -0.481,0.04 -0.686,0.071 l 6.554,16.917 c 0.243,0.031 0.505,0.054 0.785,0.07 0.28,0.016 0.569,0.024 0.868,0.024 0.261,0 0.532,-0.008 0.812,-0.024 0.28,-0.016 0.551,-0.039 0.812,-0.07 L 11.316,-6 C 11.092,-6.031 10.84,-6.055 10.56,-6.071 10.279,-6.086 10.009,-6.094 9.747,-6.094 c -0.243,0 -0.49,0.008 -0.742,0.023 -0.252,0.016 -0.49,0.04 -0.714,0.071 z" /></g><g
           transform="translate(248.0744,324.3278)"
           id="g48"><path
             id="path50"
             style="fill:#d52e3c;fill-opacity:1;fill-rule:nonzero;stroke:none"
             d="M 0,0 H -5.238 C -5.275,0.156 -5.303,0.329 -5.321,0.518 -5.34,0.706 -5.35,0.886 -5.35,1.059 c 0,0.172 0.01,0.348 0.029,0.529 0.018,0.18 0.046,0.349 0.083,0.506 H 8.095 C 8.132,1.937 8.16,1.773 8.179,1.6 8.198,1.427 8.207,1.255 8.207,1.083 8.207,0.91 8.198,0.725 8.179,0.529 8.16,0.333 8.132,0.156 8.095,0 H 2.857 v -14.823 c -0.43,-0.046 -0.896,-0.07 -1.4,-0.07 -0.523,0 -1.009,0.024 -1.457,0.07 z" /></g><g
           transform="translate(270.4267,311.2937)"
           id="g52"><path
             id="path54"
             style="fill:#d52e3c;fill-opacity:1;fill-rule:nonzero;stroke:none"
             d="M 0,0 C 0.934,0 1.741,0.153 2.422,0.459 3.104,0.764 3.669,1.207 4.117,1.788 4.565,2.368 4.901,3.066 5.126,3.881 5.35,4.697 5.462,5.622 5.462,6.658 5.462,7.677 5.35,8.599 5.126,9.423 4.901,10.246 4.565,10.944 4.117,11.516 3.669,12.089 3.104,12.529 2.422,12.834 1.741,13.14 0.934,13.293 0,13.293 c -0.934,0 -1.742,-0.153 -2.423,-0.459 -0.682,-0.305 -1.247,-0.745 -1.695,-1.318 -0.448,-0.572 -0.784,-1.27 -1.008,-2.093 -0.225,-0.824 -0.337,-1.746 -0.337,-2.765 0,-1.036 0.112,-1.961 0.337,-2.777 0.224,-0.815 0.56,-1.513 1.008,-2.093 C -3.67,1.207 -3.105,0.764 -2.423,0.459 -1.742,0.153 -0.934,0 0,0 m 0,-2.071 c -1.457,0 -2.718,0.216 -3.782,0.647 -1.064,0.431 -1.946,1.036 -2.647,1.812 -0.7,0.776 -1.223,1.698 -1.568,2.765 -0.346,1.066 -0.519,2.235 -0.519,3.505 0,1.271 0.173,2.439 0.519,3.506 0.345,1.066 0.868,1.988 1.568,2.764 0.701,0.777 1.583,1.385 2.647,1.823 1.064,0.44 2.325,0.659 3.782,0.659 1.456,0 2.717,-0.219 3.781,-0.659 1.064,-0.438 1.946,-1.046 2.647,-1.823 0.7,-0.776 1.218,-1.698 1.555,-2.764 C 8.319,9.097 8.486,7.929 8.486,6.658 8.486,5.388 8.319,4.219 7.983,3.153 7.646,2.086 7.128,1.164 6.428,0.388 5.727,-0.388 4.845,-0.993 3.781,-1.424 2.717,-1.855 1.456,-2.071 0,-2.071" /></g><g
           transform="translate(298.519,326.4217)"
           id="g56"><path
             id="path58"
             style="fill:#d52e3c;fill-opacity:1;fill-rule:nonzero;stroke:none"
             d="M 0,0 C 0.224,0.032 0.458,0.055 0.701,0.071 0.943,0.086 1.186,0.094 1.429,0.094 1.671,0.094 1.914,0.086 2.157,0.071 2.4,0.055 2.633,0.032 2.857,0 v -16.917 c -0.224,-0.03 -0.453,-0.054 -0.686,-0.07 -0.233,-0.015 -0.48,-0.024 -0.742,-0.024 -0.243,0 -0.49,0.009 -0.743,0.024 -0.251,0.016 -0.48,0.04 -0.686,0.07 z" /></g><g
           transform="translate(314.176,324.3278)"
           id="g60"><path
             id="path62"
             style="fill:#d52e3c;fill-opacity:1;fill-rule:nonzero;stroke:none"
             d="m 0,0 h -5.238 c -0.038,0.156 -0.066,0.329 -0.084,0.518 -0.019,0.188 -0.028,0.368 -0.028,0.541 0,0.172 0.009,0.348 0.028,0.529 0.018,0.18 0.046,0.349 0.084,0.506 H 8.095 C 8.132,1.937 8.16,1.773 8.179,1.6 8.197,1.427 8.207,1.255 8.207,1.083 8.207,0.91 8.197,0.725 8.179,0.529 8.16,0.333 8.132,0.156 8.095,0 H 2.857 v -14.823 c -0.43,-0.046 -0.896,-0.07 -1.401,-0.07 -0.522,0 -1.008,0.024 -1.456,0.07 z" /></g><g
           transform="translate(331.066,315.5052)"
           id="g64"><path
             id="path66"
             style="fill:#d52e3c;fill-opacity:1;fill-rule:nonzero;stroke:none"
             d="M 0,0 H 6.134 L 3.053,8.635 Z M 6.89,-2.095 H -0.756 L -2.129,-6 c -0.243,-0.031 -0.485,-0.055 -0.728,-0.071 -0.243,-0.015 -0.486,-0.023 -0.728,-0.023 -0.262,0 -0.519,0.008 -0.77,0.023 -0.253,0.016 -0.481,0.04 -0.687,0.071 l 6.554,16.917 c 0.243,0.031 0.504,0.054 0.785,0.07 0.279,0.016 0.569,0.024 0.868,0.024 0.261,0 0.532,-0.008 0.812,-0.024 0.28,-0.016 0.55,-0.039 0.812,-0.07 L 11.315,-6 c -0.224,-0.031 -0.475,-0.055 -0.756,-0.071 -0.28,-0.015 -0.55,-0.023 -0.812,-0.023 -0.243,0 -0.49,0.008 -0.742,0.023 -0.252,0.016 -0.49,0.04 -0.714,0.071 z" /></g><g
           transform="translate(349.7198,326.4217)"
           id="g68"><path
             id="path70"
             style="fill:#d52e3c;fill-opacity:1;fill-rule:nonzero;stroke:none"
             d="M 0,0 C 0.206,0.032 0.425,0.055 0.658,0.071 0.892,0.086 1.139,0.094 1.401,0.094 1.643,0.094 1.886,0.086 2.129,0.071 2.372,0.055 2.606,0.032 2.83,0 v -14.799 h 7.898 c 0.038,-0.173 0.061,-0.353 0.07,-0.541 0.009,-0.189 0.014,-0.362 0.014,-0.518 0,-0.376 -0.028,-0.729 -0.084,-1.059 H 0 Z" /></g><g
           transform="translate(367.9819,326.4217)"
           id="g72"><path
             id="path74"
             style="fill:#d52e3c;fill-opacity:1;fill-rule:nonzero;stroke:none"
             d="M 0,0 C 0.224,0.032 0.458,0.055 0.701,0.071 0.943,0.086 1.186,0.094 1.429,0.094 1.671,0.094 1.914,0.086 2.157,0.071 2.4,0.055 2.633,0.032 2.857,0 v -16.917 c -0.224,-0.03 -0.453,-0.054 -0.686,-0.07 -0.233,-0.015 -0.48,-0.024 -0.742,-0.024 -0.243,0 -0.49,0.009 -0.743,0.024 -0.251,0.016 -0.48,0.04 -0.686,0.07 z" /></g><g
           transform="translate(383.1919,315.5052)"
           id="g76"><path
             id="path78"
             style="fill:#d52e3c;fill-opacity:1;fill-rule:nonzero;stroke:none"
             d="M 0,0 H 6.134 L 3.053,8.635 Z M 6.89,-2.095 H -0.756 L -2.129,-6 c -0.243,-0.031 -0.485,-0.055 -0.728,-0.071 -0.243,-0.015 -0.486,-0.023 -0.728,-0.023 -0.262,0 -0.519,0.008 -0.77,0.023 -0.253,0.016 -0.481,0.04 -0.687,0.071 l 6.554,16.917 c 0.243,0.031 0.504,0.054 0.785,0.07 0.279,0.016 0.569,0.024 0.868,0.024 0.261,0 0.532,-0.008 0.812,-0.024 0.28,-0.016 0.55,-0.039 0.812,-0.07 L 11.315,-6 c -0.224,-0.031 -0.475,-0.055 -0.756,-0.071 -0.28,-0.015 -0.55,-0.023 -0.812,-0.023 -0.243,0 -0.49,0.008 -0.742,0.023 -0.252,0.016 -0.49,0.04 -0.714,0.071 z" /></g><g
           transform="translate(401.8457,326.4217)"
           id="g80"><path
             id="path82"
             style="fill:#d52e3c;fill-opacity:1;fill-rule:nonzero;stroke:none"
             d="M 0,0 C 0.206,0.032 0.425,0.055 0.658,0.071 0.892,0.086 1.111,0.094 1.316,0.094 1.522,0.094 1.742,0.086 1.975,0.071 2.209,0.055 2.427,0.032 2.633,0 L 11.4,-12.705 V 0 c 0.224,0.032 0.458,0.055 0.701,0.071 0.242,0.015 0.485,0.023 0.728,0.023 0.205,0 0.42,-0.008 0.644,-0.023 C 13.697,0.055 13.911,0.032 14.117,0 v -16.917 c -0.206,-0.03 -0.425,-0.054 -0.658,-0.07 -0.233,-0.015 -0.453,-0.024 -0.659,-0.024 -0.205,0 -0.424,0.009 -0.658,0.024 -0.233,0.016 -0.453,0.04 -0.657,0.07 L 2.689,-4.282 v -12.635 c -0.205,-0.03 -0.425,-0.054 -0.658,-0.07 -0.234,-0.015 -0.462,-0.024 -0.686,-0.024 -0.243,0 -0.481,0.009 -0.714,0.024 -0.234,0.016 -0.444,0.04 -0.631,0.07 z" /></g><g
           transform="translate(433.0484,311.2937)"
           id="g84"><path
             id="path86"
             style="fill:#d52e3c;fill-opacity:1;fill-rule:nonzero;stroke:none"
             d="M 0,0 C 0.934,0 1.741,0.153 2.422,0.459 3.104,0.764 3.669,1.207 4.117,1.788 4.565,2.368 4.901,3.066 5.126,3.881 5.35,4.697 5.462,5.622 5.462,6.658 5.462,7.677 5.35,8.599 5.126,9.423 4.901,10.246 4.565,10.944 4.117,11.516 3.669,12.089 3.104,12.529 2.422,12.834 1.741,13.14 0.934,13.293 0,13.293 c -0.934,0 -1.742,-0.153 -2.423,-0.459 -0.682,-0.305 -1.247,-0.745 -1.695,-1.318 -0.448,-0.572 -0.784,-1.27 -1.008,-2.093 -0.225,-0.824 -0.337,-1.746 -0.337,-2.765 0,-1.036 0.112,-1.961 0.337,-2.777 0.224,-0.815 0.56,-1.513 1.008,-2.093 C -3.67,1.207 -3.105,0.764 -2.423,0.459 -1.742,0.153 -0.934,0 0,0 m 0,-2.071 c -1.457,0 -2.718,0.216 -3.782,0.647 -1.064,0.431 -1.946,1.036 -2.647,1.812 -0.7,0.776 -1.223,1.698 -1.568,2.765 -0.346,1.066 -0.519,2.235 -0.519,3.505 0,1.271 0.173,2.439 0.519,3.506 0.345,1.066 0.868,1.988 1.568,2.764 0.701,0.777 1.583,1.385 2.647,1.823 1.064,0.44 2.325,0.659 3.782,0.659 1.456,0 2.717,-0.219 3.781,-0.659 1.064,-0.438 1.946,-1.046 2.647,-1.823 0.7,-0.776 1.218,-1.698 1.555,-2.764 C 8.319,9.097 8.486,7.929 8.486,6.658 8.486,5.388 8.319,4.219 7.983,3.153 7.646,2.086 7.128,1.164 6.428,0.388 5.727,-0.388 4.845,-0.993 3.781,-1.424 2.717,-1.855 1.456,-2.071 0,-2.071" /></g><g
           transform="translate(176.7276,285.2597)"
           id="g88"><path
             id="path90"
             style="fill:#d52e3c;fill-opacity:1;fill-rule:nonzero;stroke:none"
             d="m 0,0 c 0.134,-0.019 0.301,-0.036 0.499,-0.05 0.197,-0.015 0.407,-0.022 0.629,-0.022 0.57,0 1.088,0.065 1.556,0.195 0.468,0.131 0.87,0.35 1.209,0.659 C 4.23,1.091 4.49,1.507 4.674,2.034 4.857,2.56 4.949,3.218 4.949,4.009 4.949,4.733 4.857,5.35 4.674,5.861 4.49,6.372 4.233,6.79 3.9,7.113 3.567,7.436 3.169,7.67 2.706,7.815 2.242,7.96 1.731,8.032 1.172,8.032 0.989,8.032 0.788,8.03 0.572,8.025 0.354,8.02 0.163,8.003 0,7.974 Z m -1.477,9.19 c 0.328,0.039 0.724,0.075 1.187,0.109 0.464,0.033 0.917,0.05 1.36,0.05 1.824,0 3.186,-0.463 4.089,-1.389 C 6.061,7.033 6.512,5.702 6.512,3.966 6.512,2.151 6.051,0.806 5.13,-0.072 4.208,-0.95 2.836,-1.389 1.013,-1.389 c -0.454,0 -0.902,0.017 -1.346,0.05 -0.444,0.035 -0.825,0.076 -1.144,0.124 z" /></g><g
           transform="translate(188.7099,294.4499)"
           id="g92"><path
             id="path94"
             style="fill:#d52e3c;fill-opacity:1;fill-rule:nonzero;stroke:none"
             d="M 0,0 H 5.717 C 5.746,-0.193 5.76,-0.405 5.76,-0.637 5.76,-0.744 5.758,-0.854 5.753,-0.97 5.747,-1.086 5.736,-1.192 5.717,-1.288 H 1.476 V -4.27 h 3.386 c 0.02,-0.096 0.034,-0.2 0.044,-0.311 0.01,-0.111 0.015,-0.219 0.015,-0.325 0,-0.106 -0.005,-0.217 -0.015,-0.333 C 4.896,-5.355 4.882,-5.462 4.862,-5.557 H 1.476 v -3.561 h 4.356 c 0.029,-0.193 0.043,-0.405 0.043,-0.637 0,-0.106 -0.002,-0.216 -0.007,-0.332 -0.004,-0.116 -0.016,-0.222 -0.036,-0.319 l -5.832,0 z" /></g><g
           transform="translate(199.5631,285.6216)"
           id="g96"><path
             id="path98"
             style="fill:#d52e3c;fill-opacity:1;fill-rule:nonzero;stroke:none"
             d="m 0,0 c 0.319,-0.115 0.652,-0.217 0.999,-0.304 0.347,-0.087 0.772,-0.13 1.273,-0.13 0.791,0 1.382,0.162 1.773,0.485 0.391,0.323 0.586,0.759 0.586,1.31 0,0.27 -0.041,0.501 -0.123,0.694 C 4.426,2.248 4.303,2.414 4.139,2.554 3.975,2.694 3.77,2.822 3.524,2.938 3.278,3.053 2.991,3.179 2.663,3.314 L 1.838,3.647 C 1.559,3.762 1.303,3.89 1.071,4.03 0.839,4.17 0.639,4.342 0.47,4.544 0.302,4.747 0.169,4.981 0.072,5.246 c -0.096,0.266 -0.144,0.581 -0.144,0.948 0,0.878 0.299,1.566 0.897,2.063 0.598,0.496 1.438,0.745 2.518,0.745 0.463,0 0.902,-0.039 1.317,-0.116 C 5.075,8.809 5.442,8.712 5.76,8.597 5.712,8.192 5.605,7.791 5.442,7.395 5.181,7.492 4.88,7.578 4.537,7.656 4.194,7.733 3.806,7.771 3.372,7.771 2.765,7.771 2.297,7.648 1.968,7.402 1.64,7.157 1.476,6.788 1.476,6.295 1.476,6.093 1.517,5.912 1.599,5.753 1.681,5.593 1.789,5.454 1.925,5.333 2.06,5.212 2.219,5.104 2.403,5.008 2.586,4.911 2.779,4.824 2.981,4.747 L 3.792,4.428 C 4.178,4.274 4.52,4.113 4.819,3.944 5.118,3.775 5.374,3.577 5.586,3.35 5.798,3.123 5.96,2.856 6.071,2.547 6.182,2.238 6.237,1.877 6.237,1.462 6.237,0.468 5.895,-0.316 5.21,-0.89 4.525,-1.464 3.565,-1.751 2.33,-1.751 c -0.299,0 -0.569,0.01 -0.81,0.029 -0.242,0.019 -0.466,0.048 -0.673,0.087 -0.208,0.039 -0.408,0.087 -0.6,0.145 -0.194,0.057 -0.391,0.12 -0.594,0.187 0.019,0.212 0.063,0.43 0.13,0.652 C -0.149,-0.429 -0.077,-0.212 0,0" /></g><g
           transform="translate(212.5598,285.2597)"
           id="g100"><path
             id="path102"
             style="fill:#d52e3c;fill-opacity:1;fill-rule:nonzero;stroke:none"
             d="m 0,0 c 0.134,-0.019 0.301,-0.036 0.499,-0.05 0.197,-0.015 0.407,-0.022 0.629,-0.022 0.57,0 1.088,0.065 1.556,0.195 0.468,0.131 0.87,0.35 1.209,0.659 C 4.23,1.091 4.49,1.507 4.674,2.034 4.857,2.56 4.949,3.218 4.949,4.009 4.949,4.733 4.857,5.35 4.674,5.861 4.49,6.372 4.233,6.79 3.9,7.113 3.567,7.436 3.169,7.67 2.706,7.815 2.242,7.96 1.731,8.032 1.172,8.032 0.989,8.032 0.788,8.03 0.572,8.025 0.354,8.02 0.163,8.003 0,7.974 Z m -1.477,9.19 c 0.328,0.039 0.724,0.075 1.187,0.109 0.464,0.033 0.917,0.05 1.36,0.05 1.824,0 3.186,-0.463 4.089,-1.389 C 6.061,7.033 6.512,5.702 6.512,3.966 6.512,2.151 6.051,0.806 5.13,-0.072 4.208,-0.95 2.836,-1.389 1.013,-1.389 c -0.454,0 -0.902,0.017 -1.346,0.05 -0.444,0.035 -0.825,0.076 -1.144,0.124 z" /></g><g
           transform="translate(224.5421,294.4499)"
           id="g104"><path
             id="path106"
             style="fill:#d52e3c;fill-opacity:1;fill-rule:nonzero;stroke:none"
             d="M 0,0 H 5.717 C 5.746,-0.193 5.76,-0.405 5.76,-0.637 5.76,-0.744 5.758,-0.854 5.753,-0.97 5.747,-1.086 5.736,-1.192 5.717,-1.288 H 1.476 V -4.27 h 3.386 c 0.02,-0.096 0.034,-0.2 0.044,-0.311 0.01,-0.111 0.015,-0.219 0.015,-0.325 0,-0.106 -0.005,-0.217 -0.015,-0.333 C 4.896,-5.355 4.882,-5.462 4.862,-5.557 H 1.476 v -3.561 h 4.356 c 0.029,-0.193 0.043,-0.405 0.043,-0.637 0,-0.106 -0.002,-0.216 -0.007,-0.332 -0.004,-0.116 -0.016,-0.222 -0.036,-0.319 l -5.832,0 z" /></g><g
           transform="translate(245.1925,285.2887)"
           id="g108"><path
             id="path110"
             style="fill:#d52e3c;fill-opacity:1;fill-rule:nonzero;stroke:none"
             d="M 0,0 V 7.092 L -2.041,6.165 c -0.26,0.29 -0.448,0.646 -0.564,1.071 L 1.215,9.06 H 1.462 V 0 h 2.272 c 0.028,-0.222 0.043,-0.429 0.043,-0.622 0,-0.202 -0.015,-0.41 -0.043,-0.622 h -6.137 c -0.018,0.106 -0.031,0.209 -0.036,0.31 -0.004,0.102 -0.007,0.205 -0.007,0.312 0,0.193 0.015,0.4 0.043,0.622 z" /></g><g
           transform="translate(257.3931,288.9216)"
           id="g112"><path
             id="path114"
             style="fill:#d52e3c;fill-opacity:1;fill-rule:nonzero;stroke:none"
             d="m 0,0 c 0.28,0 0.545,0.048 0.796,0.144 0.251,0.097 0.467,0.239 0.651,0.428 0.183,0.187 0.328,0.417 0.434,0.687 0.106,0.27 0.16,0.574 0.16,0.911 0,0.724 -0.172,1.267 -0.515,1.629 -0.342,0.362 -0.817,0.542 -1.425,0.542 -0.578,0 -1.064,-0.186 -1.455,-0.557 -0.39,-0.372 -0.585,-0.919 -0.585,-1.642 0,-0.386 0.05,-0.715 0.151,-0.985 0.102,-0.27 0.24,-0.492 0.413,-0.665 0.174,-0.174 0.379,-0.3 0.615,-0.377 C -0.524,0.038 -0.27,0 0,0 M 3.603,1.403 C 3.603,0.554 3.495,-0.247 3.278,-0.999 3.061,-1.752 2.728,-2.422 2.279,-3.01 1.83,-3.599 1.259,-4.079 0.565,-4.45 -0.13,-4.822 -0.956,-5.046 -1.91,-5.123 c -0.078,0.183 -0.116,0.41 -0.116,0.68 0,0.077 0.004,0.166 0.014,0.268 0.01,0.101 0.024,0.195 0.044,0.281 0.588,0.049 1.122,0.186 1.599,0.413 0.477,0.227 0.89,0.519 1.237,0.876 0.347,0.356 0.625,0.769 0.833,1.237 C 1.908,-0.9 2.041,-0.4 2.098,0.13 1.895,-0.237 1.589,-0.555 1.179,-0.825 0.769,-1.095 0.255,-1.23 -0.362,-1.23 c -0.396,0 -0.776,0.065 -1.143,0.195 -0.367,0.13 -0.695,0.33 -0.984,0.601 -0.29,0.269 -0.521,0.615 -0.695,1.035 -0.173,0.419 -0.26,0.918 -0.26,1.497 0,0.569 0.098,1.071 0.296,1.505 0.198,0.434 0.461,0.799 0.789,1.093 0.328,0.294 0.702,0.516 1.122,0.666 0.419,0.149 0.851,0.224 1.295,0.224 0.55,0 1.044,-0.08 1.483,-0.239 C 1.98,5.188 2.352,4.939 2.655,4.602 2.959,4.264 3.193,3.83 3.357,3.299 3.521,2.768 3.603,2.136 3.603,1.403" /></g><g
           transform="translate(266.1484,284.2327)"
           id="g116"><path
             id="path118"
             style="fill:#d52e3c;fill-opacity:1;fill-rule:nonzero;stroke:none"
             d="m 0,0 2.966,3.806 c 0.203,0.27 0.405,0.54 0.608,0.81 0.203,0.27 0.384,0.546 0.543,0.825 0.159,0.28 0.287,0.562 0.384,0.847 0.096,0.285 0.144,0.576 0.144,0.875 0,0.55 -0.166,0.972 -0.499,1.266 C 3.814,8.724 3.314,8.871 2.648,8.871 2.224,8.871 1.85,8.823 1.526,8.726 1.204,8.63 0.921,8.519 0.68,8.393 0.593,8.586 0.513,8.787 0.441,8.994 0.369,9.201 0.323,9.406 0.304,9.609 c 0.308,0.145 0.673,0.282 1.092,0.413 0.42,0.13 0.91,0.195 1.469,0.195 0.473,0 0.917,-0.063 1.332,-0.188 C 4.611,9.903 4.968,9.718 5.268,9.471 5.567,9.226 5.803,8.919 5.977,8.553 6.15,8.186 6.237,7.766 6.237,7.293 6.237,6.763 6.143,6.264 5.955,5.796 5.767,5.327 5.511,4.852 5.188,4.37 4.865,3.887 4.481,3.384 4.037,2.858 3.594,2.332 3.116,1.746 2.605,1.099 H 6.498 C 6.536,0.906 6.555,0.694 6.555,0.462 6.555,0.356 6.551,0.248 6.541,0.137 6.532,0.026 6.517,-0.082 6.498,-0.188 H 0.086 Z" /></g><g
           transform="translate(280.7649,283.8558)"
           id="g120"><path
             id="path122"
             style="fill:#d52e3c;fill-opacity:1;fill-rule:nonzero;stroke:none"
             d="m 0,0 c -0.261,0.058 -0.499,0.133 -0.717,0.225 -0.217,0.091 -0.426,0.219 -0.629,0.383 l 3.705,8.51 h -4.892 c -0.02,0.096 -0.034,0.195 -0.043,0.296 -0.01,0.101 -0.015,0.205 -0.015,0.312 0,0.115 0.005,0.231 0.015,0.347 0.009,0.116 0.023,0.227 0.043,0.333 h 6.874 l 0.058,-0.102 z" /></g><g
           transform="translate(297.3921,294.4499)"
           id="g124"><path
             id="path126"
             style="fill:#d52e3c;fill-opacity:1;fill-rule:nonzero;stroke:none"
             d="M 0,0 H 5.717 C 5.746,-0.193 5.76,-0.405 5.76,-0.637 5.76,-0.744 5.758,-0.854 5.753,-0.97 5.747,-1.086 5.736,-1.192 5.717,-1.288 H 1.476 V -4.27 h 3.386 c 0.02,-0.096 0.034,-0.2 0.044,-0.311 0.01,-0.111 0.015,-0.219 0.015,-0.325 0,-0.106 -0.005,-0.217 -0.015,-0.333 C 4.896,-5.355 4.882,-5.462 4.862,-5.557 H 1.476 v -3.561 h 4.356 c 0.029,-0.193 0.043,-0.405 0.043,-0.637 0,-0.106 -0.002,-0.216 -0.007,-0.332 -0.004,-0.116 -0.016,-0.222 -0.036,-0.319 l -5.832,0 z" /></g><g
           transform="translate(308.5068,294.4499)"
           id="g128"><path
             id="path130"
             style="fill:#d52e3c;fill-opacity:1;fill-rule:nonzero;stroke:none"
             d="M 0,0 C 0.106,0.019 0.219,0.034 0.34,0.043 0.461,0.053 0.574,0.057 0.68,0.057 0.786,0.057 0.9,0.053 1.02,0.043 1.141,0.034 1.254,0.019 1.361,0 L 5.89,-7.815 V 0 c 0.116,0.019 0.237,0.034 0.362,0.043 0.125,0.01 0.251,0.014 0.376,0.014 0.106,0 0.217,-0.004 0.333,-0.014 C 7.077,0.034 7.187,0.019 7.294,0 v -10.406 c -0.107,-0.019 -0.22,-0.033 -0.34,-0.043 -0.121,-0.009 -0.234,-0.015 -0.341,-0.015 -0.106,0 -0.219,0.006 -0.34,0.015 -0.121,0.01 -0.234,0.024 -0.34,0.043 l -4.544,7.772 v -7.772 c -0.106,-0.019 -0.219,-0.033 -0.34,-0.043 -0.12,-0.009 -0.239,-0.015 -0.354,-0.015 -0.126,0 -0.249,0.006 -0.369,0.015 -0.121,0.01 -0.229,0.024 -0.326,0.043 z" /></g><g
           transform="translate(330.0555,287.7345)"
           id="g132"><path
             id="path134"
             style="fill:#d52e3c;fill-opacity:1;fill-rule:nonzero;stroke:none"
             d="M 0,0 H 3.169 L 1.577,5.312 Z M 3.56,-1.288 H -0.391 L -1.1,-3.69 c -0.126,-0.019 -0.251,-0.034 -0.376,-0.043 -0.126,-0.01 -0.251,-0.015 -0.377,-0.015 -0.135,0 -0.268,0.005 -0.398,0.015 -0.13,0.009 -0.248,0.024 -0.354,0.043 L 0.781,6.715 C 0.907,6.734 1.042,6.749 1.186,6.759 1.331,6.768 1.481,6.773 1.635,6.773 1.77,6.773 1.91,6.768 2.055,6.759 2.199,6.749 2.339,6.734 2.475,6.715 L 5.846,-3.69 C 5.731,-3.709 5.601,-3.724 5.456,-3.733 5.311,-3.743 5.171,-3.748 5.036,-3.748 c -0.126,0 -0.254,0.005 -0.383,0.015 -0.13,0.009 -0.254,0.024 -0.369,0.043 z" /></g><g
           transform="translate(340.8074,294.4641)"
           id="g136"><path
             id="path138"
             style="fill:#d52e3c;fill-opacity:1;fill-rule:nonzero;stroke:none"
             d="m 0,0 c 0.212,0.02 0.405,0.038 0.579,0.058 0.173,0.019 0.344,0.036 0.513,0.05 0.169,0.015 0.346,0.027 0.529,0.036 0.183,0.01 0.386,0.015 0.607,0.015 0.493,0 0.979,-0.048 1.462,-0.145 0.482,-0.096 0.912,-0.265 1.288,-0.506 0.377,-0.241 0.683,-0.567 0.919,-0.977 0.237,-0.41 0.355,-0.929 0.355,-1.555 0,-0.377 -0.063,-0.72 -0.188,-1.028 C 5.938,-4.361 5.779,-4.636 5.586,-4.877 5.393,-5.118 5.173,-5.328 4.928,-5.506 4.682,-5.685 4.443,-5.832 4.212,-5.948 L 4.037,-6.035 7.062,-10.42 c -0.26,-0.029 -0.555,-0.043 -0.883,-0.043 -0.26,0 -0.52,0.014 -0.781,0.043 L 2.07,-5.601 v 0.059 l 0.115,0.028 c 0.261,0.067 0.536,0.159 0.825,0.275 0.289,0.116 0.557,0.268 0.804,0.456 0.245,0.188 0.45,0.414 0.614,0.681 0.164,0.264 0.246,0.585 0.246,0.961 0,0.695 -0.205,1.211 -0.615,1.55 -0.41,0.337 -0.962,0.506 -1.656,0.506 C 2.238,-1.085 2.086,-1.091 1.946,-1.1 1.807,-1.109 1.65,-1.124 1.476,-1.143 v -9.277 c -0.106,-0.009 -0.224,-0.019 -0.355,-0.029 -0.13,-0.009 -0.253,-0.014 -0.369,-0.014 -0.115,0 -0.241,0.002 -0.376,0.007 -0.135,0.005 -0.261,0.017 -0.376,0.036 z" /></g><g
           transform="translate(358.5802,289.4281)"
           id="g140"><path
             id="path142"
             style="fill:#d52e3c;fill-opacity:1;fill-rule:nonzero;stroke:none"
             d="m 0,0 c 0.115,0.019 0.236,0.034 0.362,0.043 0.125,0.01 0.25,0.014 0.376,0.014 0.125,0 0.251,-0.004 0.376,-0.014 C 1.24,0.034 1.355,0.019 1.461,0 V -5.08 C 1.259,-5.167 1.036,-5.242 0.795,-5.305 0.554,-5.367 0.304,-5.415 0.043,-5.449 c -0.26,-0.034 -0.521,-0.06 -0.781,-0.079 -0.261,-0.02 -0.506,-0.029 -0.738,-0.029 -0.773,0 -1.467,0.121 -2.085,0.362 -0.617,0.241 -1.138,0.59 -1.562,1.049 -0.425,0.457 -0.751,1.015 -0.977,1.671 -0.227,0.656 -0.341,1.399 -0.341,2.228 0,0.83 0.117,1.58 0.348,2.251 0.232,0.67 0.562,1.243 0.991,1.715 0.43,0.473 0.941,0.837 1.534,1.092 0.594,0.256 1.253,0.384 1.976,0.384 0.55,0 1.027,-0.036 1.433,-0.108 C 0.246,5.014 0.612,4.915 0.941,4.79 0.921,4.568 0.88,4.363 0.817,4.175 0.755,3.987 0.68,3.787 0.593,3.574 0.323,3.661 0.031,3.738 -0.283,3.806 -0.596,3.873 -0.989,3.907 -1.462,3.907 -1.973,3.907 -2.439,3.815 -2.859,3.632 -3.278,3.449 -3.635,3.181 -3.93,2.829 -4.224,2.476 -4.453,2.042 -4.617,1.526 -4.781,1.01 -4.862,0.419 -4.862,-0.247 c 0,-0.684 0.084,-1.275 0.252,-1.772 0.169,-0.497 0.408,-0.912 0.717,-1.245 0.309,-0.333 0.673,-0.579 1.092,-0.738 0.42,-0.159 0.885,-0.239 1.397,-0.239 0.309,0 0.579,0.017 0.81,0.051 0.232,0.034 0.43,0.075 0.594,0.123 z" /></g><g
           transform="translate(365.7722,294.4499)"
           id="g144"><path
             id="path146"
             style="fill:#d52e3c;fill-opacity:1;fill-rule:nonzero;stroke:none"
             d="M 0,0 H 5.717 C 5.746,-0.193 5.76,-0.405 5.76,-0.637 5.76,-0.744 5.758,-0.854 5.753,-0.97 5.747,-1.086 5.736,-1.192 5.717,-1.288 H 1.476 V -4.27 h 3.386 c 0.02,-0.096 0.034,-0.2 0.044,-0.311 0.01,-0.111 0.015,-0.219 0.015,-0.325 0,-0.106 -0.005,-0.217 -0.015,-0.333 C 4.896,-5.355 4.882,-5.462 4.862,-5.557 H 1.476 v -3.561 h 4.356 c 0.029,-0.193 0.043,-0.405 0.043,-0.637 0,-0.106 -0.002,-0.216 -0.007,-0.332 -0.004,-0.116 -0.016,-0.222 -0.036,-0.319 l -5.832,0 z" /></g><g
           transform="translate(376.8861,294.4499)"
           id="g148"><path
             id="path150"
             style="fill:#d52e3c;fill-opacity:1;fill-rule:nonzero;stroke:none"
             d="M 0,0 C 0.106,0.019 0.219,0.034 0.34,0.043 0.461,0.053 0.574,0.057 0.68,0.057 0.786,0.057 0.9,0.053 1.02,0.043 1.141,0.034 1.254,0.019 1.361,0 L 5.89,-7.815 V 0 c 0.116,0.019 0.237,0.034 0.362,0.043 0.125,0.01 0.251,0.014 0.376,0.014 0.106,0 0.217,-0.004 0.333,-0.014 C 7.077,0.034 7.187,0.019 7.294,0 v -10.406 c -0.107,-0.019 -0.22,-0.033 -0.34,-0.043 -0.121,-0.009 -0.234,-0.015 -0.341,-0.015 -0.106,0 -0.219,0.006 -0.34,0.015 -0.121,0.01 -0.234,0.024 -0.34,0.043 l -4.544,7.772 v -7.772 c -0.106,-0.019 -0.219,-0.033 -0.34,-0.043 -0.12,-0.009 -0.239,-0.015 -0.354,-0.015 -0.126,0 -0.249,0.006 -0.369,0.015 -0.121,0.01 -0.229,0.024 -0.326,0.043 z" /></g><g
           transform="translate(391.8795,293.1615)"
           id="g152"><path
             id="path154"
             style="fill:#d52e3c;fill-opacity:1;fill-rule:nonzero;stroke:none"
             d="m 0,0 h -2.706 c -0.02,0.097 -0.034,0.203 -0.044,0.319 -0.01,0.115 -0.015,0.226 -0.015,0.333 0,0.106 0.005,0.214 0.015,0.325 0.01,0.11 0.024,0.215 0.044,0.311 H 4.182 C 4.201,1.192 4.216,1.091 4.226,0.985 4.235,0.878 4.24,0.772 4.24,0.666 4.24,0.56 4.235,0.446 4.226,0.326 4.216,0.205 4.201,0.097 4.182,0 H 1.476 V -9.117 C 1.254,-9.146 1.013,-9.16 0.752,-9.16 0.482,-9.16 0.231,-9.146 0,-9.117 Z" /></g><g
           transform="translate(401.0548,294.4499)"
           id="g156"><path
             id="path158"
             style="fill:#d52e3c;fill-opacity:1;fill-rule:nonzero;stroke:none"
             d="m 0,0 c 0.115,0.019 0.236,0.034 0.362,0.043 0.125,0.01 0.25,0.014 0.376,0.014 0.126,0 0.251,-0.004 0.376,-0.014 C 1.24,0.034 1.361,0.019 1.476,0 v -10.406 c -0.115,-0.019 -0.234,-0.033 -0.355,-0.043 -0.12,-0.009 -0.248,-0.015 -0.383,-0.015 -0.126,0 -0.254,0.006 -0.383,0.015 -0.13,0.01 -0.249,0.024 -0.355,0.043 z" /></g><g
           transform="translate(408.4353,294.4499)"
           id="g160"><path
             id="path162"
             style="fill:#d52e3c;fill-opacity:1;fill-rule:nonzero;stroke:none"
             d="M 0,0 C 0.106,0.019 0.219,0.034 0.34,0.043 0.461,0.053 0.574,0.057 0.68,0.057 0.786,0.057 0.9,0.053 1.02,0.043 1.141,0.034 1.254,0.019 1.361,0 L 5.89,-7.815 V 0 c 0.116,0.019 0.237,0.034 0.362,0.043 0.125,0.01 0.251,0.014 0.376,0.014 0.106,0 0.217,-0.004 0.333,-0.014 C 7.077,0.034 7.187,0.019 7.294,0 v -10.406 c -0.107,-0.019 -0.22,-0.033 -0.34,-0.043 -0.121,-0.009 -0.234,-0.015 -0.341,-0.015 -0.106,0 -0.219,0.006 -0.34,0.015 -0.121,0.01 -0.234,0.024 -0.34,0.043 l -4.544,7.772 v -7.772 c -0.106,-0.019 -0.219,-0.033 -0.34,-0.043 -0.12,-0.009 -0.239,-0.015 -0.354,-0.015 -0.126,0 -0.249,0.006 -0.369,0.015 -0.121,0.01 -0.229,0.024 -0.326,0.043 z" /></g><g
           transform="translate(423.1971,287.7345)"
           id="g164"><path
             id="path166"
             style="fill:#d52e3c;fill-opacity:1;fill-rule:nonzero;stroke:none"
             d="M 0,0 H 3.169 L 1.577,5.312 Z M 3.56,-1.288 H -0.391 L -1.1,-3.69 c -0.126,-0.019 -0.251,-0.034 -0.376,-0.043 -0.126,-0.01 -0.251,-0.015 -0.377,-0.015 -0.135,0 -0.268,0.005 -0.398,0.015 -0.13,0.009 -0.248,0.024 -0.354,0.043 L 0.781,6.715 C 0.907,6.734 1.042,6.749 1.186,6.759 1.331,6.768 1.481,6.773 1.635,6.773 1.77,6.773 1.91,6.768 2.055,6.759 2.199,6.749 2.339,6.734 2.475,6.715 L 5.846,-3.69 C 5.731,-3.709 5.601,-3.724 5.456,-3.733 5.311,-3.743 5.171,-3.748 5.036,-3.748 c -0.126,0 -0.254,0.005 -0.383,0.015 -0.131,0.009 -0.254,0.024 -0.369,0.043 z" /></g></g></g></g></svg>